<?xml version="1.0" encoding="UTF-8"?>
<svg xmlns="http://www.w3.org/2000/svg" version="1.1" viewBox="0 0 691.5 191.8">
  <defs>
    <style>
      .cls-1 {
        fill: #872657;
      }
    </style>
  </defs>
  <!-- Generator: Adobe Illustrator 28.7.1, SVG Export Plug-In . SVG Version: 1.2.0 Build 142)  -->
  <g>
    <g id="Ebene_1">
      <g>
        <path class="cls-1" d="M109.7,111c0,14.2-.3,27.7-9,38.1-8.7,10.4-23.6,11.4-35.5,11.4h-30.8V31.4h29.5c11.1,0,28.5-.4,38.9,14.3,3.3,4.6,6.9,9.7,6.9,29.5s0,35.8,0,35.8ZM144,72.4c0-12.7-1.3-26.9-10.6-43.8C118.7,1.7,89,.6,72,.2,56.3-.2,13.7.2,3.6.2S.3,1.7.3,3.5c0,0-.3,138.8-.3,184.9s1.5,3.3,3.3,3.3c4.2,0,59.7.3,69.6,0,27.3-.7,45.2-7.3,58.2-24.9,11.6-15.6,12.9-36.2,12.9-50.3v-44Z"/>
        <path class="cls-1" d="M581.2,92.8l.4-43.5c0-4.8-.3-11.1,2.5-14.4,2.4-2.9,5.3-3.3,10-3.6,6.3-.3,15.6-.3,24.8-.3,9.2,0,18,0,24.4.3,4.7.2,7.6.7,10,3.6,2.8,3.4,2.5,9.7,2.5,14.4l.4,43.5h-75ZM690.1,47.8c0-13.8-1.4-23.9-8-32.8-6.4-8.6-16.4-15.1-32.7-15.1h-61.5c-16.3,0-26.3,6.5-32.7,15.1-6.6,8.8-8,19-8,32.8l-1.3,144h34.3l.6-67.3h75.7l.6,67.3h34.3l-1.3-144Z"/>
        <g>
          <path class="cls-1" d="M521.5,31.3h-100.4v78.4c0,8.7-.5,31.6,8.5,41.5,9,9.8,29,9.2,42.1,9.6,13.2.4,49.7,0,49.7,0v31.1s-49.2.1-56.4,0c-15.1-.3-41.3,0-58.4-15.1-22.1-19.6-19.7-52.7-19.7-72.1V4.7C386.9,2.1,389,0,391.5,0h129.9v31.3Z"/>
          <path class="cls-1" d="M452.7,77.1s0,17.3,0,23.1,3.7,8.1,8.1,8.1c13.7,0,54.7,0,54.7,0v-31.3h-62.8Z"/>
        </g>
        <path class="cls-1" d="M203.6,191.8V31.4h72c8.7,0,31.6-.5,41.5,8.5,9.8,9,9.6,29,9.6,42.1v109.9h34.4s0-106.4,0-113.6c0-14.7,0-41.3-15.1-58.4C326.2-2.4,293.2,0,273.8,0h-99.9c-2.6,0-4.7,2.1-4.7,4.7v187.1h34.4Z"/>
        <path class="cls-1" d="M281.6,73.8c0-4.5-3.7-8.1-8.1-8.1h-24.8v126.1h32.9s0-88.5,0-118"/>
      </g>
    </g>
  </g>
</svg>