<?xml version="1.0" standalone="no"?>
<!DOCTYPE svg PUBLIC "-//W3C//DTD SVG 1.1//EN" "http://www.w3.org/Graphics/SVG/1.1/DTD/svg11.dtd">
<svg xmlns="http://www.w3.org/2000/svg" id="Layer_1" version="1.1" viewBox="0 0 280.63 85.04" width="280.6300048828125" height="85.04000091552734">
  <!-- Generator: Adobe Illustrator 30.0.0, SVG Export Plug-In . SVG Version: 2.1.1 Build 123)  -->
  <defs>
    <style>
      .st0 {
        fill: #111;
      }
    </style>
  </defs>
  <path class="st0" d="M58.07,9.92C52.38,4.22,44.69.53,36.14,0v8.49c13.04.74,23.39,11.56,23.39,24.81v1.42c0,13.25-10.35,24.08-23.39,24.82v8.49c8.55-.52,16.24-4.21,21.93-9.92,6.16-6.17,9.97-14.69,9.97-24.11s-3.81-17.93-9.97-24.1ZM0,34.01C0,52.12,14.1,66.94,31.89,68.03v-8.49c-13.04-.74-23.39-11.56-23.39-24.82v-1.42c0-13.25,10.35-24.08,23.39-24.81V0C23.34.53,15.65,4.22,9.97,9.92,3.81,16.08,0,24.6,0,34.01Z"/>
  <g>
    <polygon class="st0" points="209.76 0 209.76 0 209 1.64 184.15 54.92 183.96 55.33 179.27 45.27 179.46 44.86 200.38 0 209.76 0"/>
    <path class="st0" d="M181.62,60.35l-2.16,4.64-1.42,3.04-2.59,5.55s0,.01,0,.02c-2.86,6.1-8.42,10.07-14.58,11.14-3.86.68-7.96.22-11.79-1.57l3.6-7.71c5.69,2.64,12.43.2,15.07-5.48l.91-1.95,3.58-7.67-2.82-6.04-20.41-43.77c-.42-.89-1.15-1.52-2-1.83-.54-.2-1.13-.26-1.72-.17-.33.05-.67.14-1,.3-.12.05-.23.12-.35.18l-2.23-8.31c.45-.17.91-.29,1.36-.4,2.31-.54,4.68-.36,6.83.42,2.88,1.05,5.37,3.19,6.77,6.17l20.24,43.4,3.45,7.4,1.24,2.66Z"/>
  </g>
  <g>
    <path class="st0" d="M137.48,29.06v38.97h-8.5V29.06c0-5.67-2.3-10.81-6.02-14.53-3.71-3.72-8.85-6.02-14.53-6.02-6.64,0-12.54,3.15-16.3,8.04V5C96.78,1.84,102.38,0,108.43,0,116.45,0,123.71,3.25,128.97,8.51c5.26,5.26,8.51,12.52,8.51,20.55Z"/>
    <path class="st0" d="M87.87,12.05v55.98h-8.5V12.05c0-.98-.39-1.86-1.03-2.5-.63-.62-1.49-1.01-2.44-1.03-.02,0-.04,0-.07,0-.47,0-.92.09-1.33.27l-2.21-8.24c.45-.14.91-.25,1.38-.33.7-.14,1.42-.2,2.16-.2,3.33,0,6.34,1.35,8.52,3.53,1.47,1.47,2.57,3.33,3.12,5.4.27.99.41,2.03.41,3.11Z"/>
  </g>
  <g>
    <path class="st0" d="M280.63,66.28c-.41.25-.83.47-1.25.66-2.06.94-4.3,1.26-6.47.99-3.06-.38-5.98-1.92-8.03-4.54l-7.36-9.41h0s-10.21-13.06-10.21-13.06l-21.18,27.11h-10.79l26.58-34.01h0s5.39-6.9,5.39-6.9h0S268.51,0,268.51,0h10.79l-26.58,34.01h0s1.91,2.44,1.91,2.44l9.6,12.28h0s7.36,9.42,7.36,9.42c.61.77,1.46,1.22,2.36,1.33.47.05.95.02,1.41-.11.43-.12.84-.32,1.21-.61.01-.01.04-.02.05-.04l4.02,7.55Z"/>
    <g>
      <rect class="st0" x="240.87" y="12.76" width="0" height="12.19" transform="translate(57.21 175.84) rotate(-45)"/>
      <polygon class="st0" points="247.33 27.11 247.32 27.11 247.32 27.11 247.33 27.11"/>
      <polygon class="st0" points="254.63 36.46 252.72 34.02 252.72 34.01 254.63 36.46"/>
      <path class="st0" d="M244.63,23.66l-5.4,6.9-8.81-11.27h0s-7.36-9.42-7.36-9.42c-.61-.77-1.46-1.22-2.36-1.33-.47-.06-.95-.02-1.41.11-.43.12-.84.32-1.21.61-.01.01-.04.02-.05.04l-4.02-7.54c.41-.25.83-.47,1.25-.66,2.06-.94,4.3-1.26,6.47-.99,3.06.38,5.98,1.92,8.03,4.54l7.36,9.41h0s7.51,9.61,7.51,9.61Z"/>
      <polygon class="st0" points="247.32 27.11 241.93 34.01 241.93 34.02 241.93 34.01 247.32 27.11"/>
      <polygon class="st0" points="257.53 53.98 257.53 53.98 257.52 53.98 247.32 40.92 257.53 53.98"/>
    </g>
  </g>
</svg>