<?xml version="1.0" encoding="UTF-8"?> <svg xmlns="http://www.w3.org/2000/svg" xmlns:xlink="http://www.w3.org/1999/xlink" width="257" height="47" xml:space="preserve" overflow="hidden"><defs><radialGradient cx="265.088" cy="-81.332" r="87.25" gradientUnits="userSpaceOnUse" spreadMethod="pad" id="fill0" gradientTransform="matrix(0.450469 0.0228992 0.0228992 -0.450469 -45.1029 -5.30367)"><stop offset="0" stop-color="#FBB040"></stop><stop offset="0.01" stop-color="#FBB040"></stop><stop offset="0.14" stop-color="#F7941D"></stop><stop offset="0.31" stop-color="#F15A29"></stop><stop offset="0.38" stop-color="#DE5125"></stop><stop offset="0.49" stop-color="#C2451E"></stop><stop offset="0.55" stop-color="#B7401C"></stop><stop offset="0.6" stop-color="#AE3B1A"></stop><stop offset="0.67" stop-color="#952E14"></stop><stop offset="0.77" stop-color="#6C1A0B"></stop><stop offset="0.87" stop-color="#3E0200"></stop><stop offset="1" stop-color="#280000"></stop></radialGradient><radialGradient cx="83.4147" cy="-31.4866" r="114.13" gradientUnits="userSpaceOnUse" spreadMethod="pad" id="fill1" gradientTransform="matrix(0.451057 0 0 -0.451057 -36.6128 18.9145)"><stop offset="0" stop-color="#2F95D2"></stop><stop offset="0.29" stop-color="#1C75BC"></stop><stop offset="0.31" stop-color="#1A70B3"></stop><stop offset="0.42" stop-color="#0C4C7B"></stop><stop offset="0.5" stop-color="#033658"></stop><stop offset="0.55" stop-color="#002E4B"></stop><stop offset="0.66" stop-color="#00203B"></stop><stop offset="0.87" stop-color="#00091F"></stop><stop offset="1" stop-color="#000014"></stop></radialGradient><radialGradient cx="123.635" cy="-41.7266" r="64.11" gradientUnits="userSpaceOnUse" spreadMethod="pad" id="fill2" gradientTransform="matrix(0.451057 0 0 -0.451057 -36.6128 18.9145)"><stop offset="0" stop-color="#FBB040"></stop><stop offset="0.01" stop-color="#FBB040"></stop><stop offset="0.14" stop-color="#F7941D"></stop><stop offset="0.31" stop-color="#F15A29"></stop><stop offset="0.38" stop-color="#DE5125"></stop><stop offset="0.49" stop-color="#C2451E"></stop><stop offset="0.55" stop-color="#B7401C"></stop><stop offset="0.6" stop-color="#AE3B1A"></stop><stop offset="0.67" stop-color="#952E14"></stop><stop offset="0.77" stop-color="#6C1A0B"></stop><stop offset="0.87" stop-color="#3E0200"></stop><stop offset="1" stop-color="#280000"></stop></radialGradient><radialGradient cx="204.355" cy="15.5634" r="84.17" gradientUnits="userSpaceOnUse" spreadMethod="pad" id="fill3" gradientTransform="matrix(0.451057 0 0 -0.451057 -36.6128 18.9145)"><stop offset="0" stop-color="#FBB040"></stop><stop offset="0.01" stop-color="#FBB040"></stop><stop offset="0.14" stop-color="#F7941D"></stop><stop offset="0.31" stop-color="#F15A29"></stop><stop offset="0.38" stop-color="#DE5125"></stop><stop offset="0.49" stop-color="#C2451E"></stop><stop offset="0.55" stop-color="#B7401C"></stop><stop offset="0.6" stop-color="#AE3B1A"></stop><stop offset="0.67" stop-color="#952E14"></stop><stop offset="0.77" stop-color="#6C1A0B"></stop><stop offset="0.87" stop-color="#3E0200"></stop><stop offset="1" stop-color="#280000"></stop></radialGradient><radialGradient cx="157.355" cy="15.5634" r="84.27" gradientUnits="userSpaceOnUse" spreadMethod="pad" id="fill4" gradientTransform="matrix(0.451057 0 0 -0.451057 -36.6128 18.9145)"><stop offset="0" stop-color="#40B6E9"></stop><stop offset="0.01" stop-color="#40B6E9"></stop><stop offset="0.14" stop-color="#2F95D2"></stop><stop offset="0.34" stop-color="#1C75BC"></stop><stop offset="0.43" stop-color="#15629F"></stop><stop offset="0.59" stop-color="#0A4671"></stop><stop offset="0.71" stop-color="#033455"></stop><stop offset="0.78" stop-color="#002D4A"></stop><stop offset="0.97" stop-color="#001934"></stop><stop offset="1" stop-color="#001934"></stop></radialGradient><linearGradient x1="48.8262" y1="11.1326" x2="53.8755" y2="16.743" gradientUnits="userSpaceOnUse" spreadMethod="pad" id="fill5"><stop offset="0" stop-color="#FFFFFF"></stop><stop offset="1" stop-color="#FFFFFF" stop-opacity="0"></stop></linearGradient><linearGradient x1="29.7775" y1="8.77832" x2="31.2683" y2="10.4367" gradientUnits="userSpaceOnUse" spreadMethod="pad" id="fill6"><stop offset="0" stop-color="#FFFFFF"></stop><stop offset="1" stop-color="#FFFFFF" stop-opacity="0"></stop></linearGradient><radialGradient cx="438.746" cy="188.023" r="13.73" gradientUnits="userSpaceOnUse" spreadMethod="pad" id="fill7" gradientTransform="matrix(0.00118089 -0.451057 -0.451057 -0.00118089 182.789 201.323)"><stop offset="0" stop-color="#AEE2FA"></stop><stop offset="0.01" stop-color="#AEE2FA"></stop><stop offset="0.2" stop-color="#00A7E1"></stop><stop offset="0.39" stop-color="#1C75BC"></stop><stop offset="0.44" stop-color="#1B6BAF"></stop><stop offset="0.54" stop-color="#1A508C"></stop><stop offset="0.56" stop-color="#194680"></stop><stop offset="0.65" stop-color="#0E2657"></stop><stop offset="0.73" stop-color="#040B33"></stop><stop offset="0.78" stop-color="#000025"></stop><stop offset="0.82" stop-color="#010328"></stop><stop offset="0.86" stop-color="#030B33"></stop><stop offset="0.89" stop-color="#061945"></stop><stop offset="0.92" stop-color="#0B2C5E"></stop><stop offset="0.95" stop-color="#11467F"></stop><stop offset="0.99" stop-color="#1864A6"></stop><stop offset="1" stop-color="#1C75BC"></stop></radialGradient></defs><g transform="translate(-87 -38)"><path d="M72.5074 37.6785C72.5074 37.6785 73.3216 42.6993 77.8449 44.5991 78.1615 44.7348 77.7996 44.1468 78.1162 44.2372L79.7446 43.3778 100.778 9.81542C100.778 9.81542 98.3803 12.2127 94.2642 10.5844 92.3644 9.81542 91.0527 7.87043 91.0527 7.87043L72.5074 37.6785Z" fill="url(#fill0)" transform="matrix(1.00651 7.67028e-18 -7.67028e-18 1 87 38.047)"></path><path d="M13.3888 31.4817 25.511 12.2127C25.511 12.2127 33.6076 2.26162 41.8851 14.1577 41.8851 14.1577 36.0049 11.8056 29.3558 23.2947L17.5049 42.6089C17.5049 42.6089 11.9866 51.4744 0.407091 43.5587 0.407091 43.5587 5.15649 42.6993 7.64426 40.0759 8.72984 38.8998 12.4841 33.0196 13.3888 31.4817Z" fill="url(#fill1)" transform="matrix(1.00651 0 0 1 87 38.047)"></path><path d="M34.5575 31.5269 46.725 12.2127C46.725 12.2127 54.8216 2.30685 63.0991 14.1577 63.0991 14.1577 57.2189 11.8056 50.5698 23.2947L38.7641 42.6089C38.7641 42.6089 33.2458 51.4744 21.6663 43.5587 21.6663 43.5587 26.4157 42.6993 28.9035 40.0759 29.9438 38.8998 33.6529 33.0648 34.5575 31.5269Z" fill="url(#fill2)" transform="matrix(1.00651 0 0 1 87 38.047)"></path><path d="M46.725 12.258C46.725 12.258 51.2482 11.1272 54.2788 18.4096L64.4108 41.2971C64.4108 41.2971 66.2201 46.9059 71.829 46.9059 75.0857 46.9059 76.6688 46.2274 79.8803 43.3326 79.8803 43.3326 75.9903 41.8851 74.5429 39.0807 73.9549 37.9499 72.9145 35.6431 72.9145 35.6431 72.9145 35.6431 69.0246 27.1394 67.8033 24.4707 66.7177 22.0734 64.7727 16.9169 63.5062 14.5648 62.0135 11.8056 57.6712 6.0159 51.2482 8.63938 49.3937 9.31786 47.8106 10.5844 46.725 12.258Z" fill="url(#fill3)" transform="matrix(1.00651 0 0 1 87 38.047)"></path><path d="M25.511 12.258C25.511 12.258 30.0795 11.1272 33.0648 18.4096L43.1516 41.2971C43.1516 41.2971 44.9609 46.9059 50.5698 46.9059 53.8265 46.9059 55.5453 46.137 58.7116 43.2421 58.7116 43.2421 54.9573 42.2922 53.5099 39.4878 52.9218 38.357 51.6553 35.6431 51.6553 35.6431 51.6553 35.6431 47.7653 27.1394 46.5441 24.4707 45.4585 22.0734 43.5587 16.9169 42.247 14.5648 40.7996 11.7604 36.4573 5.97067 29.989 8.59414 28.1797 9.31786 26.5966 10.5844 25.511 12.258Z" fill="url(#fill4)" transform="matrix(1.00651 0 0 1 87 38.047)"></path><path d="M47.7201 11.7152C47.7201 11.7152 55.1382 2.75917 62.9634 13.9316L72.7788 35.7335C72.7788 35.7335 68.8436 42.9707 73.005 46.3179 73.005 46.3179 67.7128 47.0869 65.8583 42.7446 65.8583 42.7446 58.3497 26.1443 53.3742 15.7861 51.5649 11.8961 48.8962 11.9413 47.7201 11.7152Z" fill="url(#fill5)" transform="matrix(1.00651 0 0 1 87 38.047)"></path><path d="M26.4157 11.7604C26.4157 11.7604 33.5172 2.66871 41.4781 14.0673L41.9304 15.0624C41.9304 15.0624 39.6235 31.7079 34.9194 21.7115 33.9695 19.6761 33.0648 17.7311 32.2054 15.967 30.2604 11.9866 27.5465 11.9866 26.4157 11.7604Z" fill="url(#fill6)" transform="matrix(1.00651 0 0 1 87 38.047)"></path><path d="M97.2948 0C100.054 0 102.27 2.21638 102.27 4.97556 102.27 7.73473 100.054 9.95111 97.2948 9.95111 94.5356 9.95111 92.3192 7.73473 92.3192 4.97556 92.3192 4.97556 92.3192 4.97556 92.3192 4.93032 92.3192 2.21638 94.5356 0 97.2948 0Z" fill="url(#fill7)" transform="matrix(1.00651 4.79392e-19 0 1 87 38.047)"></path><path d="M99.3302 3.0758C99.3302 3.39243 98.9684 3.61859 98.5613 3.61859 98.1542 3.61859 97.7923 3.39243 97.7923 3.0758 97.7923 2.75917 98.1542 2.53301 98.5613 2.53301 98.9684 2.57824 99.3302 2.8044 99.3302 3.0758Z" fill="#FFFFFF" transform="matrix(1.00651 0 0 1 87 38.047)"></path><path d="M98.1994 3.70905C98.1994 3.79952 98.0637 3.88998 97.928 3.88998 97.7923 3.88998 97.7019 3.84475 97.7019 3.70905 97.7019 3.57335 97.7923 3.52812 97.9732 3.52812 98.0637 3.52812 98.1994 3.61859 98.1994 3.70905Z" fill="#FFFFFF" transform="matrix(1.00651 0 0 1 87 38.047)"></path><path d="M118.78 16.9169C122.58 16.9169 125.836 18.0025 128.55 20.1736 131.219 22.3448 132.576 24.9683 132.576 27.9988L132.576 39.7592C132.576 40.2115 132.305 40.6639 131.852 40.89 131.355 41.2067 130.767 41.3424 130.179 41.3424 129.591 41.3424 128.957 41.2067 128.46 40.89 128.053 40.6639 127.781 40.2568 127.736 39.7592L127.736 33.7886 114.619 33.7886C114.031 33.7886 113.397 33.6529 112.9 33.291 112.267 32.9744 111.995 32.2054 112.312 31.5722 112.448 31.3008 112.629 31.1199 112.9 30.9842 113.397 30.6675 114.031 30.4866 114.619 30.4866L127.736 30.4866 127.736 27.9536C127.736 25.7824 126.786 23.747 125.113 22.39 121.449 19.3594 116.157 19.3594 112.493 22.39 110.819 23.747 109.869 25.7824 109.869 27.9536L109.869 39.8045C109.869 40.302 109.598 40.7091 109.191 40.9353 108.693 41.2519 108.105 41.4328 107.472 41.4328 106.839 41.4328 106.251 41.2971 105.753 40.9353 105.346 40.7091 105.075 40.2568 105.029 39.8045L105.029 27.9988C105.029 24.923 106.386 22.3448 109.1 20.1736 111.769 18.0025 115.026 16.9169 118.78 16.9169Z" fill="#1C75BC" transform="matrix(1.00651 0 0 1 87 38.047)"></path><path d="M135.335 31.9793C135.335 29.3106 136.511 27.0037 138.909 25.1039 144.02 21.3044 150.986 21.3044 156.097 25.1039 158.494 27.0037 159.67 29.3106 159.67 31.9793L159.67 39.7592C159.625 40.2568 159.354 40.6639 158.946 40.89 158.449 41.2067 157.816 41.3424 157.228 41.3424 156.64 41.3424 156.052 41.2067 155.509 40.89 155.102 40.6639 154.83 40.2568 154.785 39.7592L154.785 31.9793C154.785 30.2152 154.016 28.4964 152.659 27.3656 149.674 24.8326 145.286 24.8326 142.301 27.3656 139.768 29.4915 139.406 33.2458 141.532 35.7788 141.758 36.0502 142.03 36.3216 142.301 36.5477 143.703 37.8142 145.558 38.4927 147.457 38.4475 148.317 38.4475 149.131 38.3118 149.945 38.0856 150.307 37.9499 150.669 37.9047 151.031 37.9047 151.574 37.9047 152.162 38.0404 152.659 38.3118 153.157 38.5379 153.428 38.9903 153.473 39.5331 153.473 40.2115 153.021 40.6639 152.162 40.9805 150.669 41.4781 149.131 41.7042 147.548 41.7042 144.427 41.7947 141.396 40.7543 138.999 38.8546 136.511 36.9096 135.335 34.6027 135.335 31.9793Z" fill="#1C75BC" transform="matrix(1.00651 0 0 1 87 38.047)"></path><path d="M162.791 27.9536C162.791 20.8521 165.46 17.324 170.752 17.324 173.421 17.324 175.818 18.8619 177.854 21.9829 179.256 24.2445 180.341 26.7323 181.02 29.3106 181.608 31.4817 182.467 33.5624 183.553 35.5074 184.638 37.4071 185.543 38.4023 186.267 38.5832 187.307 38.5832 188.167 37.9499 188.755 36.6834 189.343 35.4169 189.659 33.6529 189.659 31.4365L189.659 18.8619C189.659 18.3643 189.931 17.9572 190.383 17.7311 190.88 17.4144 191.514 17.2335 192.102 17.2335 192.69 17.2335 193.278 17.3692 193.821 17.7311 194.228 17.9572 194.499 18.4096 194.544 18.8619L194.544 31.3912C194.544 38.3118 191.785 41.7495 186.312 41.7495 183.643 41.7495 181.291 40.2115 179.346 37.1357 177.989 34.8741 176.949 32.4316 176.27 29.8533 175.682 27.6822 174.778 25.5563 173.647 23.6113 172.516 21.7115 171.566 20.6712 170.797 20.5355 169.847 20.5355 169.078 21.214 168.49 22.5257 167.902 23.8827 167.631 25.692 167.631 27.9084L167.631 39.714C167.631 40.1663 167.36 40.6186 166.907 40.8448 166.41 41.1614 165.822 41.2971 165.189 41.2971 164.555 41.3424 163.967 41.1614 163.47 40.8448 163.063 40.6186 162.791 40.2115 162.791 39.714L162.791 27.9536Z" fill="#1C75BC" transform="matrix(1.00651 0 0 1 87 38.047)"></path><path d="M197.484 31.9793C197.484 29.3106 198.66 27.0037 201.058 25.1039 203.5 23.2042 206.531 22.1638 209.607 22.2543 212.049 22.2091 214.447 22.8423 216.572 24.0184 218.517 25.0135 220.055 26.6418 221.005 28.6321 221.141 28.9487 221.231 29.3106 221.231 29.6724 221.231 30.7128 220.689 31.346 219.558 31.5269L206.576 33.6529C206.395 33.6981 206.169 33.6981 205.988 33.6981 205.445 33.6981 204.902 33.5624 204.45 33.3362 203.907 33.1101 203.591 32.6577 203.546 32.0697 203.546 31.2103 204.179 30.7128 205.4 30.5318L215.894 28.813C214.492 26.5966 212.411 25.511 209.652 25.511 207.752 25.4658 205.898 26.1443 204.495 27.4108 201.962 29.5367 201.601 33.291 203.726 35.824 203.953 36.0954 204.224 36.3668 204.495 36.593 205.898 37.8595 207.752 38.5379 209.652 38.4927 212.049 38.5832 214.311 37.4976 215.758 35.5526 216.211 34.9646 216.934 34.648 217.884 34.648 218.246 34.648 218.653 34.6932 219.015 34.7837 219.92 35.1003 220.327 35.5526 220.327 36.2311 220.327 36.5025 220.236 36.7739 220.055 36.9548 218.925 38.4475 217.387 39.6688 215.623 40.4377 213.723 41.2971 211.687 41.7042 209.607 41.7042 206.486 41.7947 203.455 40.7543 201.058 38.8546 198.66 36.9096 197.484 34.6027 197.484 31.9793Z" fill="#1C75BC" transform="matrix(1.00651 0 0 1 87 38.047)"></path><path d="M223.312 31.9793C223.312 29.3106 224.488 27.0037 226.885 25.1039 229.328 23.2042 232.359 22.1638 235.434 22.2543 237.877 22.2091 240.274 22.8423 242.4 24.0184 244.345 25.0135 245.883 26.6418 246.833 28.6321 246.969 28.9487 247.059 29.3106 247.059 29.6724 247.059 30.7128 246.516 31.346 245.385 31.5269L232.359 33.6529C232.178 33.6981 231.951 33.6981 231.771 33.6981 231.228 33.6981 230.685 33.5624 230.233 33.3362 229.69 33.1553 229.373 32.6577 229.328 32.0697 229.328 31.2103 229.961 30.7128 231.182 30.5318L241.676 28.813C240.274 26.5966 238.193 25.511 235.434 25.511 233.535 25.4658 231.68 26.1443 230.278 27.4108 227.745 29.5367 227.428 33.291 229.509 35.824 229.735 36.0954 230.006 36.3668 230.278 36.593 231.68 37.8595 233.535 38.5379 235.434 38.4927 237.832 38.5832 240.093 37.4976 241.541 35.5526 242.083 34.9194 242.852 34.6027 243.667 34.648 244.028 34.648 244.39 34.6932 244.752 34.7837 245.657 35.1003 246.109 35.5526 246.109 36.2311 246.109 36.5025 246.019 36.7739 245.838 36.9548 244.707 38.4475 243.169 39.6688 241.405 40.4377 239.505 41.2971 237.47 41.7042 235.389 41.7042 232.268 41.7947 229.237 40.7543 226.84 38.8546 224.488 36.9096 223.312 34.6027 223.312 31.9793Z" fill="#1C75BC" transform="matrix(1.00651 0 0 1 87 38.047)"></path><path d="M250.044 18.8619C250.044 18.3643 250.316 17.9572 250.723 17.7311 251.22 17.4144 251.854 17.2335 252.442 17.2335 253.03 17.2335 253.618 17.3692 254.161 17.7311 254.568 17.9572 254.839 18.4096 254.884 18.8619L254.884 39.7592C254.884 40.2115 254.613 40.6639 254.161 40.89 253.663 41.2067 253.075 41.3424 252.442 41.3424 251.808 41.3876 251.22 41.2067 250.723 40.89 250.316 40.6639 250.044 40.2568 250.044 39.7592L250.044 18.8619Z" fill="#1C75BC" transform="matrix(1.00651 0 0 1 87 38.047)"></path></g></svg> 